<svg width="256" height="256" viewBox="0 0 256 256" fill="none" xmlns="http://www.w3.org/2000/svg">
<path d="M72.9791 119.55C69.3124 113.377 66.8054 110.067 70.4407 104.851C73.0711 101.076 80.4605 94.4001 85.5652 94.0307C89.2451 93.6307 91.325 95.9772 93.1116 98.5638C101.431 110.643 108.711 123.336 114.711 136.696C117.374 143.795 108.387 149.287 102.605 152.935C96.4448 157.468 92.2316 155.095 88.9517 148.642C83.9119 138.802 78.6055 129.069 72.9791 119.55Z" fill="url(#paint0_linear_77_1049)"/>
<path d="M94.6048 37.2596C90.4122 28.9587 97.4022 25.4637 103.218 21.4203C107.887 18.1737 113.641 14.9786 117.751 21.2336C137.83 51.7924 153.589 84.4844 165.749 118.936C167.802 126.819 156.818 130.314 150.469 132.776C145.243 135.362 141.136 133.896 138.976 127.896C127.59 96.0039 112.897 65.7651 94.6048 37.2596Z" fill="url(#paint1_linear_77_1049)"/>
<path d="M224.893 178.641C219.853 215.199 199.374 240.318 163.455 251.544C127.83 262.69 98.098 252.424 72.7391 226.345C54.4998 207.573 44.6602 183.334 30.7674 161.788C24.501 152.082 35.4906 147.29 41.487 143.389C47.4733 139.801 51.2199 142.002 54.3131 146.962C60.4196 156.748 66.446 166.561 72.2324 176.534C78.0188 186.534 83.7519 196.56 91.565 205.146C108.018 223.252 127.51 231.972 152.336 225.359C177.881 218.559 192.148 201.6 196.894 176.214C198.334 168.401 198.467 160.348 199.134 153.015C196.521 107.71 181.908 66.4584 164.042 26.1401C157.082 10.4607 158.522 6.35419 174.122 0.887741C179.108 -0.872188 182.921 -0.232214 185.135 4.78092C209.72 60.1387 233.586 115.896 224.893 178.641Z" fill="url(#paint2_linear_77_1049)"/>
<path d="M224.893 178.641C219.853 215.199 199.374 240.318 163.455 251.544C127.83 262.69 98.098 252.424 72.7391 226.345C54.4998 207.573 44.6602 183.334 30.7674 161.788C24.501 152.082 35.4906 147.29 41.487 143.389C47.4733 139.801 51.2199 142.002 54.3131 146.962C60.4196 156.748 66.446 166.561 72.2324 176.534C78.0188 186.534 83.7519 196.56 91.565 205.146C108.018 223.252 127.51 231.972 152.336 225.359C177.881 218.559 192.148 201.6 196.894 176.214C198.334 168.401 198.467 160.348 199.134 153.015C196.521 107.71 181.908 66.4584 164.042 26.1401C157.082 10.4607 158.522 6.35419 174.122 0.887741C179.108 -0.872188 182.921 -0.232214 185.135 4.78092C209.72 60.1387 233.586 115.896 224.893 178.641Z" fill="url(#paint3_linear_77_1049)"/>
<path d="M150.469 132.776C145.243 135.362 141.136 133.896 138.976 127.896C127.59 96.0039 112.897 65.7651 94.6048 37.2596C90.4122 28.9587 97.4022 25.4637 103.218 21.4203C107.887 18.1737 113.641 14.9786 117.751 21.2336C137.83 51.7924 153.589 84.4844 165.749 118.936C167.802 126.819 156.818 130.314 150.469 132.776Z" fill="url(#paint4_linear_77_1049)"/>
<path d="M102.605 152.935C96.4448 157.468 92.2316 155.095 88.9517 148.642C83.9119 138.802 78.6055 129.069 72.9791 119.55C69.3124 113.377 66.8054 110.067 70.4407 104.851C73.0711 101.076 80.4605 94.4001 85.5652 94.0307C89.2451 93.6307 91.325 95.9772 93.1116 98.5638C101.431 110.643 108.711 123.336 114.711 136.696C117.374 143.795 108.387 149.287 102.605 152.935Z" fill="url(#paint5_linear_77_1049)"/>
<defs>
<linearGradient id="paint0_linear_77_1049" x1="28.8965" y1="0" x2="284.018" y2="170.825" gradientUnits="userSpaceOnUse">
<stop offset="0.25" stop-color="#FDE1C3"/>
<stop offset="0.45" stop-color="#F9D1FA"/>
<stop offset="0.75" stop-color="#D6DEFF"/>
</linearGradient>
<linearGradient id="paint1_linear_77_1049" x1="28.8965" y1="0" x2="284.018" y2="170.825" gradientUnits="userSpaceOnUse">
<stop offset="0.25" stop-color="#FDE1C3"/>
<stop offset="0.45" stop-color="#F9D1FA"/>
<stop offset="0.75" stop-color="#D6DEFF"/>
</linearGradient>
<linearGradient id="paint2_linear_77_1049" x1="28.8965" y1="0" x2="284.018" y2="170.825" gradientUnits="userSpaceOnUse">
<stop offset="0.25" stop-color="#FDE1C3"/>
<stop offset="0.45" stop-color="#F9D1FA"/>
<stop offset="0.75" stop-color="#D6DEFF"/>
</linearGradient>
<linearGradient id="paint3_linear_77_1049" x1="28.8965" y1="0" x2="284.018" y2="170.825" gradientUnits="userSpaceOnUse">
<stop offset="0.25" stop-color="#FDE1C3"/>
<stop offset="0.45" stop-color="#F9D1FA"/>
<stop offset="0.75" stop-color="#D6DEFF"/>
</linearGradient>
<linearGradient id="paint4_linear_77_1049" x1="28.8965" y1="0" x2="284.018" y2="170.825" gradientUnits="userSpaceOnUse">
<stop offset="0.25" stop-color="#FDE1C3"/>
<stop offset="0.45" stop-color="#F9D1FA"/>
<stop offset="0.75" stop-color="#D6DEFF"/>
</linearGradient>
<linearGradient id="paint5_linear_77_1049" x1="28.8965" y1="0" x2="284.018" y2="170.825" gradientUnits="userSpaceOnUse">
<stop offset="0.25" stop-color="#FDE1C3"/>
<stop offset="0.45" stop-color="#F9D1FA"/>
<stop offset="0.75" stop-color="#D6DEFF"/>
</linearGradient>
</defs>
</svg>
